<?xml version="1.0" encoding="UTF-8" standalone="no"?>
<!-- Created with Inkscape (http://www.inkscape.org/) -->

<svg
   xmlns:dc="http://purl.org/dc/elements/1.1/"
   xmlns:cc="http://creativecommons.org/ns#"
   xmlns:rdf="http://www.w3.org/1999/02/22-rdf-syntax-ns#"
   xmlns:svg="http://www.w3.org/2000/svg"
   xmlns="http://www.w3.org/2000/svg"
   xmlns:xlink="http://www.w3.org/1999/xlink"
   xmlns:sodipodi="http://sodipodi.sourceforge.net/DTD/sodipodi-0.dtd"
   xmlns:inkscape="http://www.inkscape.org/namespaces/inkscape"
   width="64"
   version="1.1"
   height="64"
   id="svg2"
   inkscape:version="0.91 r13725"
   sodipodi:docname="user-trash-full.svg">
  <sodipodi:namedview
     pagecolor="#ffffff"
     bordercolor="#666666"
     borderopacity="1"
     objecttolerance="10"
     gridtolerance="10"
     guidetolerance="10"
     inkscape:pageopacity="0"
     inkscape:pageshadow="2"
     inkscape:window-width="956"
     inkscape:window-height="1051"
     id="namedview17"
     showgrid="false"
     inkscape:zoom="5.2149125"
     inkscape:cx="51.64417"
     inkscape:cy="34.679744"
     inkscape:window-x="960"
     inkscape:window-y="0"
     inkscape:window-maximized="0"
     inkscape:current-layer="layer1" />
  <defs
     id="defs5455">
    <linearGradient
       inkscape:collect="always"
       id="linearGradient4209">
      <stop
         style="stop-color:#ddd"
         id="stop4211" />
      <stop
         offset="1"
         style="stop-color:#fff"
         id="stop4213" />
    </linearGradient>
    <linearGradient
       inkscape:collect="always"
       xlink:href="#linearGradient4209"
       id="linearGradient4178"
       y1="541.79797"
       y2="499.78421"
       x2="0"
       gradientUnits="userSpaceOnUse"
       gradientTransform="matrix(1 0 0 0.99967455 0 0.176455)" />
  </defs>
  <metadata
     id="metadata5458">
    <rdf:RDF>
      <cc:Work
         rdf:about="">
        <dc:format>image/svg+xml</dc:format>
        <dc:type
           rdf:resource="http://purl.org/dc/dcmitype/StillImage" />
        <dc:title></dc:title>
      </cc:Work>
    </rdf:RDF>
  </metadata>
  <g
     inkscape:label="Capa 1"
     inkscape:groupmode="layer"
     id="layer1"
     transform="matrix(1 0 0 1 -384.57143 -483.798)">
    <path
       inkscape:connector-curvature="0"
       style="fill:#cccdce"
       id="rect4180"
       d="m 388.57143,489.79813 0,5 0,22 c 0,0.55372 0.446,1 1,1 l 54,0 c 0.55399,0 1,-0.44628 1,-1 l 0,-21.99023 c 0,-0.003 -0.002,-0.006 -0.002,-0.01 l 0.002,0 0,-1 -28,0 -4,-4 -24,0 z" />
    <path
       inkscape:connector-curvature="0"
       style="fill:url(#linearGradient4178)"
       id="rect4113"
       d="m 410.57143,499.79813 -4,4 -19,0 0,1 0.002,0 c -5e-5,0.004 -0.002,0.008 -0.002,0.0117 l 0,35.98828 0,1 1,0 56,0 1,0 0,-1 0,-35.98828 0,-0.0117 0,-5 z" />
    <path
       inkscape:connector-curvature="0"
       style="fill:#ffffff;fill-opacity:0.235294;fill-rule:evenodd"
       id="path4224-8"
       d="m 387.57144,503.79813 0,1 19.99999,0 3,-5 -4,4 z" />
    <path
       inkscape:connector-curvature="0"
       style="fill-opacity:0.235294;fill-rule:evenodd"
       id="path4228-3"
       d="m 388.57143,502.79813 0,1 18,0 4,-4 -6,3 z" />
    <path
       inkscape:connector-curvature="0"
       style="fill-opacity:0.235294"
       id="path4151-2"
       d="m 387.57143,540.79811 0,1 1,0 56,0 1,0 0,-1 -1,0 -56,0 -1,0 z" />
    <path
       inkscape:connector-curvature="0"
       style="fill:#ffffff;fill-opacity:0.235294;fill-rule:evenodd"
       id="path4196"
       d="m 412.57143,489.79801 3,5 2,0 27,0 0,-1 -27,0 -1,0 z" />
    <path
       inkscape:connector-curvature="0"
       style="fill:#707073"
       id="path4153"
       d="m 413.57142,510.79803 0,2 -6.99999,0 10e-6,1 1.99998,0 0,16.99997 1,0 15,0 0,-1.99997 0,-15 2.00002,0 0,-1 -7.00002,0 0,-1.99999 z m 1,1 4,0 0,2 1,0 4,0 0,16 -14,0 0,-16 5,0 z m -1,6 0,8 1,0 0,-8 z m 5,0 0,8 1,0 0,-8 z" />
    <path
       style="fill:#707073;fill-rule:evenodd;stroke:#707073;stroke-width:1px;stroke-linecap:butt;stroke-linejoin:miter;stroke-opacity:1"
       d="m 409.19018,522.42632 0.0931,7.69372 14.61016,-0.017 c 0.0168,-1.25385 -0.0794,-1.73759 0.0339,-2.72881 l -14.72145,-8.22615 z"
       id="path4474"
       inkscape:connector-curvature="0"
       sodipodi:nodetypes="cccccc" />
  </g>
</svg>
