<?xml version="1.0" encoding="UTF-8" standalone="no"?>
<!-- Created with Inkscape (http://www.inkscape.org/) -->

<svg
   xmlns:dc="http://purl.org/dc/elements/1.1/"
   xmlns:cc="http://creativecommons.org/ns#"
   xmlns:rdf="http://www.w3.org/1999/02/22-rdf-syntax-ns#"
   xmlns:svg="http://www.w3.org/2000/svg"
   xmlns="http://www.w3.org/2000/svg"
   xmlns:xlink="http://www.w3.org/1999/xlink"
   xmlns:sodipodi="http://sodipodi.sourceforge.net/DTD/sodipodi-0.dtd"
   xmlns:inkscape="http://www.inkscape.org/namespaces/inkscape"
   width="64"
   version="1.1"
   height="64"
   id="svg2"
   inkscape:version="0.91 r13725"
   sodipodi:docname="folder-cloud.svg">
  <sodipodi:namedview
     pagecolor="#ffffff"
     bordercolor="#666666"
     borderopacity="1"
     objecttolerance="10"
     gridtolerance="10"
     guidetolerance="10"
     inkscape:pageopacity="0"
     inkscape:pageshadow="2"
     inkscape:window-width="956"
     inkscape:window-height="1051"
     id="namedview17"
     showgrid="false"
     inkscape:zoom="10.429825"
     inkscape:cx="32.766415"
     inkscape:cy="28.265742"
     inkscape:window-x="960"
     inkscape:window-y="0"
     inkscape:window-maximized="0"
     inkscape:current-layer="layer1" />
  <defs
     id="defs5455">
    <linearGradient
       inkscape:collect="always"
       id="linearGradient4209">
      <stop
         style="stop-color:#000"
         id="stop4211" />
      <stop
         offset="1"
         style="stop-color:#666"
         id="stop4213" />
    </linearGradient>
    <linearGradient
       inkscape:collect="always"
       xlink:href="#linearGradient4209"
       id="linearGradient4178"
       y1="541.79797"
       y2="499.78421"
       x2="0"
       gradientUnits="userSpaceOnUse"
       gradientTransform="matrix(1 0 0 0.99967455 0 0.176455)" />
  </defs>
  <metadata
     id="metadata5458">
    <rdf:RDF>
      <cc:Work
         rdf:about="">
        <dc:format>image/svg+xml</dc:format>
        <dc:type
           rdf:resource="http://purl.org/dc/dcmitype/StillImage" />
        <dc:title></dc:title>
      </cc:Work>
    </rdf:RDF>
  </metadata>
  <g
     inkscape:label="Capa 1"
     inkscape:groupmode="layer"
     id="layer1"
     transform="matrix(1 0 0 1 -384.57143 -483.798)">
    <path
       inkscape:connector-curvature="0"
       style="fill:#999"
       id="rect4180"
       d="m 388.57143,489.79813 0,5 0,22 c 0,0.55372 0.446,1 1,1 l 54,0 c 0.55399,0 1,-0.44628 1,-1 l 0,-21.99023 c 0,-0.003 -0.002,-0.006 -0.002,-0.01 l 0.002,0 0,-1 -28,0 -4,-4 -24,0 z" />
    <path
       inkscape:connector-curvature="0"
       style="fill:url(#linearGradient4178)"
       id="rect4113"
       d="m 410.57143,499.79813 -4,4 -19,0 0,1 0.002,0 c -5e-5,0.004 -0.002,0.008 -0.002,0.0117 l 0,35.98828 0,1 1,0 56,0 1,0 0,-1 0,-35.98828 0,-0.0117 0,-5 z" />
    <path
       inkscape:connector-curvature="0"
       style="fill:#ffffff;fill-opacity:0.235294;fill-rule:evenodd"
       id="path4224-8"
       d="m 387.57144,503.79813 0,1 19.99999,0 3,-5 -4,4 z" />
    <path
       inkscape:connector-curvature="0"
       style="fill-opacity:0.235294;fill-rule:evenodd"
       id="path4228-3"
       d="m 388.57143,502.79813 0,1 18,0 4,-4 -6,3 z" />
    <path
       inkscape:connector-curvature="0"
       style="fill-opacity:0.235294"
       id="path4151-2"
       d="m 387.57143,540.79811 0,1 1,0 56,0 1,0 0,-1 -1,0 -56,0 -1,0 z" />
    <path
       inkscape:connector-curvature="0"
       style="fill:#ffffff;fill-opacity:0.235294;fill-rule:evenodd"
       id="path4196"
       d="m 412.57143,489.79801 3,5 2,0 27,0 0,-1 -27,0 -1,0 z" />
    <path
       inkscape:connector-curvature="0"
       style="fill:#ffffff;stroke-linejoin:round"
       id="path4225"
       d="m 416.57143,511.79805 a 7,7 0 0 0 -7,7 7,7 0 0 0 0.0801,1.00195 5,5 0 0 0 -0.0801,-0.002 5,5 0 0 0 -5,5 5,5 0 0 0 5,5 l 13,0 a 6,6 0 0 0 6,-6 6,6 0 0 0 -5.06836,-5.92188 7,7 0 0 0 -6.93164,-6.07812 z m 0,1 a 6,6 0 0 1 0.59961,0.0293 6,6 0 0 1 2.78711,1.01953 6,6 0 0 1 0.002,0 6,6 0 0 1 1.31055,1.2207 6,6 0 0 1 0,0.002 6,6 0 0 1 1.21484,2.73243 6,6 0 0 1 0.0859,0.99604 5,5 0 0 1 0.99609,0.0996 5,5 0 0 1 0.48243,0.12305 5,5 0 0 1 0.002,0 5,5 0 0 1 0.46679,0.17187 5,5 0 0 1 0.002,0 5,5 0 0 1 0.44727,0.2168 5,5 0 0 1 0.004,0.002 5,5 0 0 1 0.42187,0.25976 5,5 0 0 1 0.004,0.002 5,5 0 0 1 0.39453,0.30079 5,5 0 0 1 0.002,0.002 5,5 0 0 1 0.36329,0.33789 5,5 0 0 1 0.002,0.002 5,5 0 0 1 0.61914,0.78125 5,5 0 0 1 0.002,0.002 5,5 0 0 1 0.24609,0.43164 5,5 0 0 1 0.002,0.002 5,5 0 0 1 0.20312,0.45312 5,5 0 0 1 0.002,0.002 5,5 0 0 1 0.15625,0.47266 5,5 0 0 1 0,0.002 5,5 0 0 1 0.10938,0.48633 5,5 0 0 1 0,0.002 5,5 0 0 1 0.0605,0.49414 5,5 0 0 1 0.0114,0.35309 5,5 0 0 1 -5,5 l -13,0 a 4,4 0 0 1 -4,-4 4,4 0 0 1 0.0195,-0.39844 4,4 0 0 1 3.98047,-3.60156 4,4 0 0 1 0.29883,0.0137 4,4 0 0 1 0,0.002 4,4 0 0 1 1.15625,0.26172 6,6 0 0 1 -0.3418,-1.14649 6,6 0 0 1 -0.0742,-0.50781 6,6 0 0 1 -0.0137,-0.11523 6,6 0 0 1 -0.0254,-0.50786 6,6 0 0 1 0.0293,-0.59961 6,6 0 0 1 5.9707,-5.40039 z" />
  </g>
</svg>
