<?xml version="1.0" encoding="UTF-8" standalone="no"?>
<svg
   width="24"
   height="24"
   version="1.1"
   id="svg8"
   sodipodi:docname="emblem-default.svg"
   inkscape:version="1.1 (1:1.1+202106031931+af4d65493e)"
   xmlns:inkscape="http://www.inkscape.org/namespaces/inkscape"
   xmlns:sodipodi="http://sodipodi.sourceforge.net/DTD/sodipodi-0.dtd"
   xmlns="http://www.w3.org/2000/svg"
   xmlns:svg="http://www.w3.org/2000/svg"
   xmlns:rdf="http://www.w3.org/1999/02/22-rdf-syntax-ns#"
   xmlns:cc="http://creativecommons.org/ns#"
   xmlns:dc="http://purl.org/dc/elements/1.1/">
  <metadata
     id="metadata14">
    <rdf:RDF>
      <cc:Work
         rdf:about="">
        <dc:format>image/svg+xml</dc:format>
        <dc:type
           rdf:resource="http://purl.org/dc/dcmitype/StillImage" />
      </cc:Work>
    </rdf:RDF>
  </metadata>
  <defs
     id="defs12">
    <inkscape:path-effect
       effect="powerclip"
       id="path-effect166"
       is_visible="true"
       lpeversion="1"
       inverse="true"
       flatten="false"
       hide_clip="false"
       message="Use fill-rule evenodd on &lt;b&gt;fill and stroke&lt;/b&gt; dialog if no flatten result after convert clip to paths." />
    <clipPath
       clipPathUnits="userSpaceOnUse"
       id="clipPath162">
      <circle
         style="display:none;fill:#909295;stroke-width:1"
         cx="24"
         cy="24"
         r="20"
         id="circle164"
         d="M 44,24 A 20,20 0 0 1 24,44 20,20 0 0 1 4,24 20,20 0 0 1 24,4 20,20 0 0 1 44,24 Z" />
      <path
         id="lpe_path-effect166"
         style="fill:#909295;stroke-width:1"
         class="powerclip"
         d="M -5,-5 H 53 V 53 H -5 Z M 44,24 A 20,20 0 0 0 24,4 20,20 0 0 0 4,24 20,20 0 0 0 24,44 20,20 0 0 0 44,24 Z" />
    </clipPath>
  </defs>
  <sodipodi:namedview
     pagecolor="#ffffff"
     bordercolor="#666666"
     borderopacity="1"
     objecttolerance="10"
     gridtolerance="10"
     guidetolerance="10"
     inkscape:pageopacity="0"
     inkscape:pageshadow="2"
     inkscape:window-width="1133"
     inkscape:window-height="787"
     id="namedview10"
     showgrid="false"
     inkscape:zoom="24.306796"
     inkscape:cx="12.013101"
     inkscape:cy="12.013101"
     inkscape:window-x="399"
     inkscape:window-y="259"
     inkscape:window-maximized="0"
     inkscape:current-layer="g6"
     inkscape:document-rotation="0"
     inkscape:pagecheckerboard="0" />
  <g
     transform="scale(0.5)"
     id="g6">
    <path
       style="fill:#ffffff;stroke-width:1.2"
       id="circle2-6"
       clip-path="url(#clipPath162)"
       inkscape:path-effect="#path-effect166"
       sodipodi:type="arc"
       sodipodi:cx="24"
       sodipodi:cy="24"
       sodipodi:rx="24"
       sodipodi:ry="24"
       d="M 48,24 A 24,24 0 0 1 24,48 24,24 0 0 1 0,24 24,24 0 0 1 24,0 24,24 0 0 1 48,24 Z" />
    <circle
       style="fill:#333333;opacity:1"
       cx="24.008055"
       cy="23.932812"
       r="20"
       id="circle2-7" />
    <path
       style="fill:#ffffff"
       d="M 11,27.221826 15.24264,31.464467 18.778174,35 37.16295,16.615224 33.627417,13.07969 18.778174,27.928933 14.535533,23.686292 Z"
       id="path4" />
  </g>
</svg>
