<?xml version="1.0" encoding="UTF-8" standalone="no"?>
<svg
   width="24"
   height="24"
   version="1"
   id="svg10"
   sodipodi:docname="emblem-documents.svg"
   inkscape:version="1.1 (1:1.1+202106031931+af4d65493e)"
   xmlns:inkscape="http://www.inkscape.org/namespaces/inkscape"
   xmlns:sodipodi="http://sodipodi.sourceforge.net/DTD/sodipodi-0.dtd"
   xmlns="http://www.w3.org/2000/svg"
   xmlns:svg="http://www.w3.org/2000/svg"
   xmlns:rdf="http://www.w3.org/1999/02/22-rdf-syntax-ns#"
   xmlns:cc="http://creativecommons.org/ns#"
   xmlns:dc="http://purl.org/dc/elements/1.1/">
  <metadata
     id="metadata16">
    <rdf:RDF>
      <cc:Work
         rdf:about="">
        <dc:format>image/svg+xml</dc:format>
        <dc:type
           rdf:resource="http://purl.org/dc/dcmitype/StillImage" />
      </cc:Work>
    </rdf:RDF>
  </metadata>
  <defs
     id="defs14">
    <clipPath
       clipPathUnits="userSpaceOnUse"
       id="clipPath162">
      <circle
         style="display:none;fill:#909295;stroke-width:1"
         cx="24"
         cy="24"
         r="20"
         id="circle164"
         d="M 44,24 A 20,20 0 0 1 24,44 20,20 0 0 1 4,24 20,20 0 0 1 24,4 20,20 0 0 1 44,24 Z" />
      <path
         id="lpe_path-effect166"
         style="fill:#909295;stroke-width:1"
         class="powerclip"
         d="M -5,-5 H 53 V 53 H -5 Z M 44,24 A 20,20 0 0 0 24,4 20,20 0 0 0 4,24 20,20 0 0 0 24,44 20,20 0 0 0 44,24 Z" />
    </clipPath>
    <inkscape:path-effect
       effect="powerclip"
       id="path-effect166"
       is_visible="true"
       lpeversion="1"
       inverse="true"
       flatten="false"
       hide_clip="false"
       message="Use fill-rule evenodd on &lt;b&gt;fill and stroke&lt;/b&gt; dialog if no flatten result after convert clip to paths." />
  </defs>
  <sodipodi:namedview
     pagecolor="#ffffff"
     bordercolor="#666666"
     borderopacity="1"
     objecttolerance="10"
     gridtolerance="10"
     guidetolerance="10"
     inkscape:pageopacity="0"
     inkscape:pageshadow="2"
     inkscape:window-width="1157"
     inkscape:window-height="816"
     id="namedview12"
     showgrid="false"
     inkscape:zoom="34.375"
     inkscape:cx="12.014545"
     inkscape:cy="12"
     inkscape:window-x="763"
     inkscape:window-y="366"
     inkscape:window-maximized="0"
     inkscape:current-layer="svg10"
     inkscape:document-rotation="0"
     inkscape:pagecheckerboard="0" />
  <path
     style="fill:#ffffff;stroke-width:1.2"
     id="circle2-6"
     clip-path="url(#clipPath162)"
     inkscape:path-effect="#path-effect166"
     sodipodi:type="arc"
     sodipodi:cx="24"
     sodipodi:cy="24"
     sodipodi:rx="24"
     sodipodi:ry="24"
     transform="scale(0.5)"
     d="M 48,24 A 24,24 0 0 1 24,48 24,24 0 0 1 0,24 24,24 0 0 1 24,0 24,24 0 0 1 48,24 Z" />
  <circle
     style="fill:#333333"
     cx="12"
     cy="12"
     r="10"
     id="circle2" />
  <path
     style="fill:#ffffff"
     d="m 8,7 h 8 V 9 H 8 Z"
     id="path4" />
  <path
     style="fill:#ffffff"
     d="m 8,11 h 8 v 2 H 8 Z"
     id="path6" />
  <path
     style="fill:#ffffff"
     d="m 8,15 h 8 v 2 H 8 Z"
     id="path8" />
</svg>
