<?xml version="1.0" encoding="UTF-8" standalone="no"?>
<svg
   xmlns:dc="http://purl.org/dc/elements/1.1/"
   xmlns:cc="http://creativecommons.org/ns#"
   xmlns:rdf="http://www.w3.org/1999/02/22-rdf-syntax-ns#"
   xmlns:svg="http://www.w3.org/2000/svg"
   xmlns="http://www.w3.org/2000/svg"
   xmlns:sodipodi="http://sodipodi.sourceforge.net/DTD/sodipodi-0.dtd"
   xmlns:inkscape="http://www.inkscape.org/namespaces/inkscape"
   version="1.1"
   x="0px"
   y="0px"
   viewBox="0 0 80 40"
   enable-background="new 0 0 80 40"
   xml:space="preserve"
   id="svg6"
   sodipodi:docname="switch-on-outline.svg"
   inkscape:version="0.92.5 (2060ec1f9f, 2020-04-08)"><metadata
   id="metadata12"><rdf:RDF><cc:Work
       rdf:about=""><dc:format>image/svg+xml</dc:format><dc:type
         rdf:resource="http://purl.org/dc/dcmitype/StillImage" /><dc:title></dc:title></cc:Work></rdf:RDF></metadata><defs
   id="defs10" /><sodipodi:namedview
   pagecolor="#ffffff"
   bordercolor="#666666"
   borderopacity="1"
   objecttolerance="10"
   gridtolerance="10"
   guidetolerance="10"
   inkscape:pageopacity="0"
   inkscape:pageshadow="2"
   inkscape:window-width="1920"
   inkscape:window-height="989"
   id="namedview8"
   showgrid="false"
   inkscape:zoom="11.313708"
   inkscape:cx="31.375"
   inkscape:cy="10.927326"
   inkscape:window-x="0"
   inkscape:window-y="0"
   inkscape:window-maximized="1"
   inkscape:current-layer="svg6" />

<g
   id="g4"
   transform="matrix(-0.07011815,0,0,0.07011815,75.186692,-13.876988)"
   style="fill:#ffffff;fill-opacity:1"><path
     style="fill:#ffffff;fill-opacity:1"
     d="m 255,339.5 c -88.7,0 -160.5,71.9 -160.5,160.5 0,88.7 71.9,160.5 160.5,160.5 88.7,0 160.5,-71.9 160.5,-160.5 0,-88.7 -71.8,-160.5 -160.5,-160.5 z m 0,287.3 C 185,626.8 128.2,570 128.2,500 128.2,430 185,373.2 255,373.2 325,373.2 381.8,430 381.8,500 381.8,570 325,626.8 255,626.8 Z M 770.3,271.9 H 229.7 C 108.3,271.9 10,370.2 10,491.6 v 16.9 c 0,121.3 98.3,219.7 219.7,219.7 h 540.7 c 121.3,0 219.7,-98.3 219.7,-219.7 V 491.6 C 990,370.2 891.7,271.9 770.3,271.9 Z m -8.4,422.4 H 238.1 c -107.3,0 -194.3,-87 -194.3,-194.3 0,-107.3 87,-194.3 194.3,-194.3 h 523.8 c 107.3,0 194.3,87 194.3,194.3 0,107.3 -87,194.3 -194.3,194.3 z"
     id="path2"
     inkscape:connector-curvature="0" /></g>
<rect
   transform="rotate(45)"
   ry="0.79221833"
   rx="0.79221833"
   y="-23.994486"
   x="51.83577"
   height="2.3766549"
   width="5.941689"
   id="rect3977-39-2-13"
   style="display:inline;opacity:1;fill:#ffffff;fill-opacity:1;stroke:none;stroke-width:1.1883378" /><rect
   transform="rotate(45)"
   ry="0"
   y="-31.12451"
   x="55.400784"
   height="9.5066824"
   width="2.3766756"
   id="rect3979-7-0-65"
   style="display:inline;opacity:1;fill:#ffffff;fill-opacity:1;stroke:none;stroke-width:1.1883378" /></svg>