<?xml version="1.0" encoding="UTF-8" standalone="no"?>
<svg
   xmlns:dc="http://purl.org/dc/elements/1.1/"
   xmlns:cc="http://creativecommons.org/ns#"
   xmlns:rdf="http://www.w3.org/1999/02/22-rdf-syntax-ns#"
   xmlns:svg="http://www.w3.org/2000/svg"
   xmlns="http://www.w3.org/2000/svg"
   xmlns:sodipodi="http://sodipodi.sourceforge.net/DTD/sodipodi-0.dtd"
   xmlns:inkscape="http://www.inkscape.org/namespaces/inkscape"
   version="1.1"
   x="0px"
   y="0px"
   viewBox="0 0 80 40"
   enable-background="new 0 0 80 40"
   xml:space="preserve"
   id="svg6"
   sodipodi:docname="switch-off-outline.svg"
   inkscape:version="0.92.5 (2060ec1f9f, 2020-04-08)"><metadata
   id="metadata12"><rdf:RDF><cc:Work
       rdf:about=""><dc:format>image/svg+xml</dc:format><dc:type
         rdf:resource="http://purl.org/dc/dcmitype/StillImage" /><dc:title></dc:title></cc:Work></rdf:RDF></metadata><defs
   id="defs10" /><sodipodi:namedview
   pagecolor="#ffffff"
   bordercolor="#666666"
   borderopacity="1"
   objecttolerance="10"
   gridtolerance="10"
   guidetolerance="10"
   inkscape:pageopacity="0"
   inkscape:pageshadow="2"
   inkscape:window-width="1920"
   inkscape:window-height="989"
   id="namedview8"
   showgrid="false"
   inkscape:zoom="1"
   inkscape:cx="97.23377"
   inkscape:cy="111.78519"
   inkscape:window-x="0"
   inkscape:window-y="0"
   inkscape:window-maximized="1"
   inkscape:current-layer="svg6" />

<g
   id="g4"
   transform="matrix(0.07011815,0,0,0.07011815,5.0615306,-13.876988)"
   style="fill:#ffffff;fill-opacity:1"><path
     style="fill:#ffffff;fill-opacity:1"
     d="m 255,339.5 c -88.7,0 -160.5,71.9 -160.5,160.5 0,88.7 71.9,160.5 160.5,160.5 88.7,0 160.5,-71.9 160.5,-160.5 0,-88.7 -71.8,-160.5 -160.5,-160.5 z m 0,287.3 C 185,626.8 128.2,570 128.2,500 128.2,430 185,373.2 255,373.2 325,373.2 381.8,430 381.8,500 381.8,570 325,626.8 255,626.8 Z M 770.3,271.9 H 229.7 C 108.3,271.9 10,370.2 10,491.6 v 16.9 c 0,121.3 98.3,219.7 219.7,219.7 h 540.7 c 121.3,0 219.7,-98.3 219.7,-219.7 V 491.6 C 990,370.2 891.7,271.9 770.3,271.9 Z m -8.4,422.4 H 238.1 c -107.3,0 -194.3,-87 -194.3,-194.3 0,-107.3 87,-194.3 194.3,-194.3 h 523.8 c 107.3,0 194.3,87 194.3,194.3 0,107.3 -87,194.3 -194.3,194.3 z"
     id="path2"
     inkscape:connector-curvature="0" /></g>
<path
   inkscape:connector-curvature="0"
   d="m 18.80253,16.812363 h 1.054941 c 0.01407,-1.4e-4 0.0225,-4.91e-4 0.03235,0 0.26894,0.01125 0.53788,0.135642 0.725237,0.329778 l 2.406672,2.407448 2.439446,-2.407448 c 0.280336,-0.243242 0.471208,-0.322392 0.725379,-0.329778 h 1.054941 v 1.055317 c 0,0.302314 -0.03657,0.5811 -0.263735,0.791488 l -2.406673,2.407433 2.373617,2.374466 c 0.198612,0.198581 0.296791,0.478537 0.296791,0.758519 v 1.055318 h -1.054941 c -0.279912,-1.4e-5 -0.559824,-0.09821 -0.758292,-0.296812 l -2.406533,-2.407447 -2.406672,2.407447 c -0.198469,0.198597 -0.478381,0.296812 -0.758151,0.296812 h -1.054941 v -1.055318 c 0,-0.279969 0.09846,-0.559938 0.296649,-0.758519 l 2.406532,-2.374466 -2.406532,-2.407433 c -0.222382,-0.205407 -0.319858,-0.49521 -0.296649,-0.791488 v -1.055317 z"
   id="path10839-9-8-2-2-5-46"
   style="color:#bebebe;font-style:normal;font-variant:normal;font-weight:normal;font-stretch:normal;font-size:medium;line-height:normal;font-family:'Andale Mono';-inkscape-font-specification:'Andale Mono';text-indent:0;text-align:start;text-decoration:none;text-decoration-line:none;letter-spacing:normal;word-spacing:normal;text-transform:none;writing-mode:lr-tb;direction:ltr;text-anchor:start;display:inline;overflow:visible;visibility:visible;opacity:1;fill:#ffffff;fill-opacity:1;fill-rule:nonzero;stroke:none;stroke-width:2.50593257;marker:none;enable-background:new" /></svg>